<svg xmlns="http://www.w3.org/2000/svg" version="1.1" xmlns:xlink="http://www.w3.org/1999/xlink" xmlns:svgjs="http://svgjs.dev/svgjs" width="1500" height="1500" viewBox="0 0 1500 1500"><rect width="1500" height="1500" fill="#000000"></rect><g transform="matrix(0.6666666666666666,0,0,0.6666666666666666,249.39393939393932,668.1717277162625)"><svg viewBox="0 0 396 65" data-background-color="#ffffff" preserveAspectRatio="xMidYMid meet" height="246" width="1500" xmlns="http://www.w3.org/2000/svg" xmlns:xlink="http://www.w3.org/1999/xlink"><g id="tight-bounds" transform="matrix(1,0,0,1,0.24000000000003752,-0.06806281437232542)"><svg viewBox="0 0 395.5199999999999 65.13612562874465" height="65.13612562874465" width="395.5199999999999"><g><svg viewBox="0 0 497.1032993757002 81.86534930875575" height="65.13612562874465" width="395.5199999999999"><g transform="matrix(1,0,0,1,0,11.314241474654377)"><svg viewBox="0 0 395.52 59.236866359447" height="59.236866359447" width="395.52"><g id="textblocktransform"><svg viewBox="0 0 395.52 59.236866359447" height="59.236866359447" width="395.52" id="textblock"><g><svg viewBox="0 0 395.52 59.236866359447" height="59.236866359447" width="395.52"><g transform="matrix(1,0,0,1,0,0)"><svg width="395.52" viewBox="3.7 -25.5 173.59 26" height="59.236866359447" data-palette-color="#006f42"><path d="M10.1 0L3.7 0 3.7-24.9 9.45-24.9 9.6-21.6Q10.58-23.1 12.31-24.3 14.05-25.5 16.95-25.5L16.95-25.5Q19.48-25.5 21.15-24.38 22.83-23.25 23.68-21.2L23.68-21.2Q24.63-22.78 26.41-24.14 28.2-25.5 31.4-25.5L31.4-25.5Q35.15-25.5 37-23.1 38.85-20.7 38.85-16.45L38.85-16.45 38.85 0 32.5 0 32.5-15.8Q32.5-17.88 31.7-19.16 30.9-20.45 29.1-20.45L29.1-20.45Q27.35-20.45 25.93-19.16 24.5-17.88 24.5-15.8L24.5-15.8 24.5 0 18.1 0 18.1-15.8Q18.1-17.88 17.19-19.21 16.28-20.55 14.5-20.55L14.5-20.55Q12.7-20.55 11.4-19.21 10.1-17.88 10.1-15.8L10.1-15.8 10.1 0ZM55.95 0.5L55.95 0.5Q50.45 0.5 47.45-2.95 44.45-6.4 44.45-12.5L44.45-12.5Q44.45-18.65 47.55-22.08 50.65-25.5 56.15-25.5L56.15-25.5Q61.67-25.5 64.56-21.96 67.45-18.43 67.45-12.5L67.45-12.5Q67.45-6.58 64.46-3.04 61.47 0.5 55.95 0.5ZM56.05-4.5L56.05-4.5Q60.8-4.5 60.8-12.5L60.8-12.5Q60.8-20.55 56.05-20.55L56.05-20.55Q53.7-20.55 52.4-18.69 51.1-16.82 51.1-12.5L51.1-12.5Q51.1-8.2 52.4-6.35 53.7-4.5 56.05-4.5ZM79.25 0L73 0 73-24.9 78.65-24.9 78.95-20.5Q79.35-21.48 80.18-22.58 81.02-23.68 82.51-24.44 84-25.2 86.35-25.2L86.35-25.2Q87.07-25.2 87.62-25.1 88.17-25 88.65-24.8L88.65-24.8 87.25-18.25Q86.45-19.05 84.8-19.05L84.8-19.05Q82.87-19.05 81.65-18.26 80.42-17.48 79.83-16.5 79.25-15.53 79.25-15L79.25-15 79.25 0ZM98.74 0L92.34 0 92.34-24.9 98.09-24.9 98.24-21.6Q99.22-23.1 100.96-24.3 102.69-25.5 105.59-25.5L105.59-25.5Q108.12-25.5 109.79-24.38 111.47-23.25 112.32-21.2L112.32-21.2Q113.27-22.78 115.06-24.14 116.84-25.5 120.04-25.5L120.04-25.5Q123.79-25.5 125.64-23.1 127.49-20.7 127.49-16.45L127.49-16.45 127.49 0 121.14 0 121.14-15.8Q121.14-17.88 120.34-19.16 119.54-20.45 117.74-20.45L117.74-20.45Q115.99-20.45 114.57-19.16 113.14-17.88 113.14-15.8L113.14-15.8 113.14 0 106.74 0 106.74-15.8Q106.74-17.88 105.83-19.21 104.92-20.55 103.14-20.55L103.14-20.55Q101.34-20.55 100.04-19.21 98.74-17.88 98.74-15.8L98.74-15.8 98.74 0ZM144.59 0.5L144.59 0.5Q139.09 0.5 136.09-2.95 133.09-6.4 133.09-12.5L133.09-12.5Q133.09-18.65 136.19-22.08 139.29-25.5 144.79-25.5L144.79-25.5Q150.31-25.5 153.2-21.96 156.09-18.43 156.09-12.5L156.09-12.5Q156.09-6.58 153.1-3.04 150.12 0.5 144.59 0.5ZM144.69-4.5L144.69-4.5Q149.44-4.5 149.44-12.5L149.44-12.5Q149.44-20.55 144.69-20.55L144.69-20.55Q142.34-20.55 141.04-18.69 139.74-16.82 139.74-12.5L139.74-12.5Q139.74-8.2 141.04-6.35 142.34-4.5 144.69-4.5ZM167.89 0L161.64 0 161.64-24.9 167.29-24.9 167.59-20.5Q167.99-21.48 168.82-22.58 169.66-23.68 171.15-24.44 172.64-25.2 174.99-25.2L174.99-25.2Q175.71-25.2 176.26-25.1 176.81-25 177.29-24.8L177.29-24.8 175.89-18.25Q175.09-19.05 173.44-19.05L173.44-19.05Q171.51-19.05 170.29-18.26 169.06-17.48 168.47-16.5 167.89-15.53 167.89-15L167.89-15 167.89 0Z" opacity="1" transform="matrix(1,0,0,1,0,0)" fill="#ffffff" class="wordmark-text-0" data-fill-palette-color="primary" id="text-0"></path></svg></g></svg></g></svg></g></svg></g><g transform="matrix(1,0,0,1,409.5044024626728,0)"><svg viewBox="0 0 87.59889691302742 81.86534930875575" height="81.86534930875575" width="87.59889691302742"><g><svg xmlns="http://www.w3.org/2000/svg" xmlns:xlink="http://www.w3.org/1999/xlink" version="1.1" x="0" y="0" viewBox="1.8 4.531 96.34500000000001 90.03899999999999" enable-background="new 0 0 100 100" xml:space="preserve" height="81.86534930875575" width="87.59889691302742" class="icon-icon-0" data-fill-palette-color="accent" id="icon-0"><rect x="1.8" y="4.531" width="43.768" height="23.146" fill="#ffffff" data-fill-palette-color="accent"></rect><rect x="54.378" y="4.531" width="43.767" height="23.146" fill="#ffffff" data-fill-palette-color="accent"></rect><rect x="1.8" y="37.977" width="96.345" height="23.145" fill="#ffffff" data-fill-palette-color="accent"></rect><rect x="1.8" y="71.425" width="43.768" height="23.145" fill="#ffffff" data-fill-palette-color="accent"></rect><rect x="54.378" y="71.425" width="43.767" height="23.145" fill="#ffffff" data-fill-palette-color="accent"></rect></svg></g></svg></g></svg></g><defs></defs></svg><rect width="395.5199999999999" height="65.13612562874465" fill="none" stroke="none" visibility="hidden"></rect></g></svg></g></svg>